<svg xmlns="http://www.w3.org/2000/svg" viewBox="0 0 1200 400" width="1200" height="400">
  <defs>
    <linearGradient id="bg" x1="0" y1="0" x2="1" y2="1">
      <stop offset="0" stop-color="#7a5640"/>
      <stop offset="1" stop-color="#3b2418"/>
    </linearGradient>
  </defs>
  <rect width="1200" height="400" fill="url(#bg)"/>
  <text x="80" y="185" font-family="Georgia, 'Times New Roman', serif" font-size="76" fill="#fff8f0">Bean &amp; Byte Café</text>
  <text x="84" y="250" font-family="Arial, Helvetica, sans-serif" font-size="32" fill="#e8d3bd">Coffee · Code · Community</text>
  <text x="84" y="320" font-family="Consolas, Menlo, monospace" font-size="24" fill="#b08968">&lt;open&gt;8am – 8pm&lt;/open&gt;</text>
  <g transform="translate(800 40) scale(2)">
    <ellipse cx="100" cy="150" rx="62" ry="12" fill="#d9c2ad"/>
    <path d="M85 75 q-6 -10 0 -20 M100 75 q-6 -10 0 -20 M115 75 q-6 -10 0 -20" fill="none" stroke="#e8d3bd" stroke-width="4" stroke-linecap="round"/>
    <path d="M60 90 h80 v20 a40 40 0 0 1 -80 0 z" fill="#fff8f0"/>
    <path d="M140 98 a12 12 0 0 1 0 24" fill="none" stroke="#fff8f0" stroke-width="7"/>
    <ellipse cx="100" cy="92" rx="38" ry="6" fill="#3b2418"/>
  </g>
</svg>
